<?xml version="1.0" encoding="UTF-8" standalone="no"?>
<!-- Created with Inkscape (http://www.inkscape.org/) -->

<svg
   xmlns:dc="http://purl.org/dc/elements/1.1/"
   xmlns:cc="http://creativecommons.org/ns#"
   xmlns:rdf="http://www.w3.org/1999/02/22-rdf-syntax-ns#"
   xmlns:svg="http://www.w3.org/2000/svg"
   xmlns="http://www.w3.org/2000/svg"
   xmlns:sodipodi="http://sodipodi.sourceforge.net/DTD/sodipodi-0.dtd"
   xmlns:inkscape="http://www.inkscape.org/namespaces/inkscape"
   width="500"
   height="500"
   viewBox="0 0 500.00001 500.00001"
   id="svg2"
   version="1.1"
   inkscape:version="0.91 r13725"
   sodipodi:docname="paper.svg">
  <defs
     id="defs4" />
  <sodipodi:namedview
     id="base"
     pagecolor="#ffffff"
     bordercolor="#666666"
     borderopacity="1.0"
     inkscape:pageopacity="0.0"
     inkscape:pageshadow="2"
     inkscape:zoom="0.7"
     inkscape:cx="212.38703"
     inkscape:cy="359.78551"
     inkscape:document-units="px"
     inkscape:current-layer="layer1"
     showgrid="false"
     units="px"
     inkscape:window-width="1368"
     inkscape:window-height="859"
     inkscape:window-x="-8"
     inkscape:window-y="-8"
     inkscape:window-maximized="1" />
  <metadata
     id="metadata7">
    <rdf:RDF>
      <cc:Work
         rdf:about="">
        <dc:format>image/svg+xml</dc:format>
        <dc:type
           rdf:resource="http://purl.org/dc/dcmitype/StillImage" />
        <dc:title></dc:title>
      </cc:Work>
    </rdf:RDF>
  </metadata>
  <g
     inkscape:label="Layer 1"
     inkscape:groupmode="layer"
     id="layer1"
     transform="translate(0,-552.36216)">
    <path
       style="fill:#000000"
       d="M 237.66631,1045.4709 C 147.07808,1039.5102 71.701653,990.03296 31.968439,910.44991 3.7335665,853.89734 -0.75129053,782.82816 20.095439,722.30466 41.186157,661.07278 83.031303,613.17764 141.00209,583.91723 c 22.3252,-11.26851 43.747,-18.02073 73.65277,-23.21559 11.21582,-1.94827 44.71199,-2.55036 59.74017,-1.07381 15.40113,1.51318 39.98759,6.90479 54.61974,11.97766 32.81293,11.37604 72.09122,36.25452 94.24481,59.69374 64.98714,68.75846 85.44564,165.08429 54.05817,254.52506 -11.60445,33.0677 -30.33788,61.97157 -58.22388,89.83377 -33.25235,33.22404 -74.25416,55.29044 -119.92208,64.53994 -18.87859,3.8237 -46.95268,6.2304 -61.50548,5.2729 z m 20.91949,-5.9521 c 0.47552,-0.7744 6.72778,-1.4036 13.94633,-1.4036 7.21855,0 13.47082,-0.6292 13.94633,-1.4036 0.47407,-0.772 3.13379,-1.4036 5.91049,-1.4036 2.7767,0 6.97585,-0.5856 9.33146,-1.3012 42.59216,-12.9389 66.75337,-24.3144 90.75017,-42.72664 9.01967,-6.9204 38.12099,-36.0232 44.39714,-44.3992 17.29664,-23.08362 31.25058,-50.18486 38.66387,-75.09269 0.91906,-3.08792 2.21833,-7.06527 2.88728,-8.83855 0.66895,-1.77328 1.21627,-4.96297 1.21627,-7.08819 0,-2.12522 0.56974,-4.46408 1.26606,-5.19747 0.69634,-0.73338 1.70649,-4.80733 2.24478,-9.05323 1.57196,-12.39936 1.23666,-71.51412 -0.4538,-80.00531 -0.84529,-4.2459 -1.92169,-9.93048 -2.39199,-12.63242 -0.47031,-2.70193 -1.3684,-6.17585 -1.99575,-7.71981 -0.62735,-1.54396 -1.90093,-5.6495 -2.83016,-9.12341 -0.92924,-3.47392 -2.25594,-7.41297 -2.94822,-8.75347 -0.6923,-1.34049 -1.25872,-3.06163 -1.25872,-3.82476 0,-1.77808 -7.1664,-17.93978 -12.78288,-28.82803 -18.02194,-34.93776 -52.35436,-71.38578 -86.93338,-92.29032 -6.84476,-4.13796 -35.16577,-17.89243 -36.84123,-17.89243 -0.85196,0 -2.63878,-0.61172 -3.97071,-1.35938 -3.13793,-1.76142 -14.83226,-5.66159 -21.94655,-7.3194 -3.06819,-0.71497 -8.40266,-1.96065 -11.85438,-2.7682 -3.45172,-0.80755 -10.66894,-1.76963 -16.03828,-2.13798 -5.36934,-0.36835 -10.35864,-1.25214 -11.08733,-1.96399 -1.72836,-1.68839 -38.85547,-1.68839 -40.58382,0 -0.7287,0.71185 -5.718,1.59564 -11.08734,1.96399 -5.36933,0.36835 -12.58656,1.33043 -16.03828,2.13798 -3.45171,0.80755 -8.78619,2.05211 -11.85438,2.76568 -8.25317,1.91949 -26.21278,8.27606 -36.76035,13.01088 -51.0067,22.89694 -91.810953,62.18669 -115.76434,111.46758 -8.991869,18.49957 -12.345805,27.31008 -16.830925,44.21346 -0.921765,3.47391 -2.260995,8.25592 -2.976067,10.62667 -0.715071,2.37075 -1.300131,6.50787 -1.300131,9.19359 0,2.68573 -0.649778,5.53709 -1.443949,6.33637 -0.950174,0.95629 -1.233368,12.93172 -0.828148,35.01987 0.639271,34.84587 1.635942,48.06545 3.795294,50.33968 0.696338,0.73338 1.266069,2.86114 1.266069,4.72835 0,3.14476 4.086812,17.34823 7.342749,25.51927 0.769033,1.92995 1.862354,4.77224 2.4296,6.31621 16.650392,45.31986 53.23568,88.75986 98.311708,116.7316 11.173,6.9334 28.92253,15.9089 31.46079,15.9089 0.74302,0 2.59759,0.6316 4.12128,1.4036 1.5237,0.7719 4.01699,2.0352 5.54069,2.8072 1.52369,0.772 3.99698,1.4036 5.49621,1.4036 1.49925,0 3.06905,0.5587 3.48844,1.2417 0.41941,0.683 2.4961,1.5916 4.61487,2.019 2.11877,0.4275 6.67644,1.4919 10.12816,2.3652 10.9016,2.7582 21.1952,4.3301 35.12906,5.364 7.43175,0.5515 13.9691,1.4624 14.52744,2.0244 1.53705,1.5469 15.60296,1.2231 16.58857,-0.3819 z M 148.49757,883.68776 c -3.96369,-1.54782 -9.8816,-5.65168 -13.94633,-9.67124 -3.88352,-3.84035 -10.09401,-8.28134 -13.80108,-9.86887 -6.96396,-2.98224 -20.21051,-3.92649 -22.616892,-1.61219 -1.238908,1.19151 -4.886069,1.77187 -23.290371,3.7061 -4.027003,0.42323 -8.576994,1.33481 -10.11109,2.02575 -1.534096,0.69092 -5.299606,1.57261 -8.367803,1.95929 -3.068193,0.38669 -9.867266,1.40342 -15.10905,2.25942 -10.634917,1.73669 -12.575315,1.00628 -14.086218,-5.30232 -0.502797,-2.09937 -1.557458,-6.34352 -2.343688,-9.43145 -3.548199,-13.93556 -4.419135,-23.03066 -4.953189,-51.72565 -0.386236,-20.75267 -0.08259,-31.26373 0.938958,-32.50254 0.83039,-1.00698 4.776468,-2.21383 8.769064,-2.68186 3.992596,-0.46801 11.966147,-1.50626 17.719008,-2.3072 5.752861,-0.80092 19.559733,-2.04193 30.681932,-2.75778 11.122198,-0.71585 23.911649,-1.69469 28.421019,-2.17522 4.67855,-0.49854 9.469,-0.25611 11.15706,0.56462 7.90501,3.84334 11.92755,3.97825 51.07307,1.71291 44.9255,-2.59984 69.84068,-4.95361 74.61287,-7.04878 3.62759,-1.59264 10.41828,-3.07744 13.94633,-3.04938 4.46441,0.0355 14.98097,2.47016 19.52486,4.52013 2.30115,1.03816 11.40113,2.34664 20.22218,2.90773 8.82106,0.56111 18.63206,1.43653 21.80226,1.94541 3.62822,0.58238 6.11332,0.3563 6.7068,-0.61016 1.19278,-1.94235 22.605,-2.06094 23.78968,-0.1318 1.40926,2.2949 53.80248,1.75129 67.6397,-0.7018 16.47586,-2.92087 19.07389,-2.73979 23.07804,1.60856 4.24068,4.6052 4.52179,12.33363 0.63073,17.34007 -1.67631,2.15681 -2.7392,5.72389 -2.75825,9.25677 -0.0205,3.8047 -0.91385,6.55185 -2.64251,8.12633 -3.05574,2.78323 -16.28445,7.88177 -20.44999,7.88177 -1.58329,0 -3.5414,0.66697 -4.35136,1.48214 -1.50826,1.51796 -31.14914,1.00575 -46.50271,-0.80361 l -7.67048,-0.90393 0.43993,10.28881 c 0.43009,10.05827 0.33635,10.38859 -4.1839,14.7413 -2.54311,2.44885 -10.24263,7.37302 -17.11005,10.94258 -6.86743,3.56957 -13.14327,7.0239 -13.94633,7.6763 -2.98877,2.42806 -15.6967,6.217 -24.47156,7.29633 -15.44168,1.89935 -25.62548,3.61579 -29.98461,5.05381 -6.77917,2.23634 -17.19645,7.27137 -18.10489,8.75071 -0.46263,0.75336 -2.85413,2.27648 -5.31446,3.3847 -4.39465,1.97955 -5.80784,2.35923 -19.81427,5.32366 -3.83525,0.81171 -17.64211,1.99545 -30.68193,2.63054 -13.03982,0.63508 -26.84669,1.47736 -30.68193,1.87175 -4.94018,0.508 -8.98057,-0.0668 -13.85855,-1.97171 z m 41.05389,-5.50861 c 32.05602,-1.41104 46.80919,-4.48665 57.87728,-12.06578 8.7349,-5.98144 15.5618,-8.39607 29.47851,-10.4264 27.08563,-3.95159 29.36578,-4.54247 43.30251,-11.22133 14.54077,-6.96835 26.27393,-14.18028 29.37585,-18.05625 3.12477,-3.90454 2.1414,-13.58265 -1.86726,-18.37731 -1.98582,-2.37517 -4.70535,-4.3185 -6.04342,-4.3185 -3.42685,0 -4.53528,-1.52319 -2.71486,-3.73076 2.15293,-2.61081 5.00361,-2.35578 9.47349,0.84753 3.45576,2.47655 6.38382,2.73929 31.4056,2.81802 26.91767,0.0846 32.89267,-0.58873 44.89013,-5.05951 6.61911,-2.46657 9.76311,-7.44069 7.45115,-11.78843 -1.27223,-2.39247 -2.90816,-2.69624 -13.70686,-2.54517 -6.7941,0.095 -13.5748,-0.53546 -15.20569,-1.41389 -1.6189,-0.87199 -8.59594,-1.58542 -15.50454,-1.58542 -6.90859,0 -12.94894,-0.63162 -13.423,-1.40361 -0.47407,-0.77198 -0.19732,-1.4036 0.615,-1.4036 0.81232,0 1.47695,-0.63162 1.47695,-1.4036 0,-0.77198 -3.10089,-1.4036 -6.89086,-1.4036 -3.78997,0 -7.27873,-0.63162 -7.75279,-1.4036 -0.51571,-0.83981 1.22518,-1.40361 4.33403,-1.40361 2.85778,0 4.76864,-0.43006 4.24636,-0.95571 -0.52227,-0.52563 -20.2389,-1.39651 -43.81472,-1.9353 -41.04609,-0.93803 -43.33859,-1.13496 -54.02219,-4.64078 -12.97134,-4.25654 -15.68346,-4.42054 -25.10339,-1.51804 -9.85915,3.03783 -44.29472,6.35375 -87.16457,8.39338 -9.5881,0.45619 -19.50239,1.10764 -22.03174,1.44769 -2.52936,0.34007 -10.84393,-0.68414 -18.47681,-2.27601 -7.6329,-1.59185 -14.55045,-2.47601 -15.37234,-1.96479 -0.82189,0.51124 -11.334872,1.44648 -23.362173,2.07836 -21.866131,1.14875 -53.028043,5.02712 -54.979348,6.84266 -2.021629,1.88095 -2.682353,27.75669 -1.114701,43.65461 1.620896,16.43787 7.088302,42.81014 9.297967,44.84916 0.670719,0.61891 8.436709,-0.33232 17.257763,-2.11386 8.821059,-1.78152 25.765851,-4.64473 37.655097,-6.36268 28.833435,-4.16631 33.665915,-3.26085 46.869765,8.78196 5.11305,4.66345 11.2504,9.33495 13.63857,10.38111 5.09783,2.23316 4.80409,2.22813 39.90524,0.68306 z m 51.95009,-57.33843 c -4.79405,-0.22982 -8.71646,-0.89303 -8.71646,-1.47378 0,-3.33132 4.25946,-4.42737 17.36318,-4.46789 16.17533,-0.05 34.15517,-2.11881 36.18705,-4.16376 2.2007,-2.21485 8.81196,-1.66401 9.75636,0.8129 1.24678,3.26991 1.15302,3.3942 -2.56033,3.3942 -1.87378,0 -5.56306,1.28037 -8.1984,2.84525 -3.90233,2.31724 -7.60514,2.9033 -19.95324,3.1581 -8.33894,0.17208 -19.08411,0.12478 -23.87816,-0.10499 z m 40.0957,-4.49472 c 0,-0.77199 -0.27675,-1.40361 -0.61501,-1.40361 -0.33825,0 -1.00288,0.63162 -1.47694,1.40361 -0.47407,0.77198 -0.19732,1.4036 0.615,1.4036 0.81232,0 1.47695,-0.63162 1.47695,-1.4036 z m -66.01263,3.27506 c -2.27483,-2.28944 -0.68926,-4.67867 3.10493,-4.67867 3.41593,0 5.72774,2.02915 5.72774,5.02741 0,0.96986 -7.82965,0.66073 -8.83267,-0.34874 z m 83.61827,-9.6444 c -0.45266,-1.18719 -0.0491,-2.37415 0.89676,-2.63769 0.94588,-0.26353 7.68183,-2.45782 14.96879,-4.87621 14.88097,-4.93869 18.84575,-5.36206 20.07297,-2.14339 1.24135,3.25571 1.14501,3.39421 -2.36113,3.39421 -1.76421,0 -3.80386,0.52179 -4.53256,1.15954 -0.72869,0.63776 -4.14903,1.96255 -7.60075,2.944 -3.45171,0.98146 -7.3656,2.35453 -8.69753,3.05126 -3.96113,2.07211 -11.82629,1.52187 -12.74655,-0.89172 z m 4.70849,-31.52792 c 0,-2.5357 0.92976,-2.8072 9.61322,-2.8072 9.09014,0 11.30627,0.98541 11.30627,5.02741 0,0.32284 -4.70688,0.587 -10.45975,0.587 -9.52998,0 -10.45974,-0.24954 -10.45974,-2.80721 z m 43.23362,-2.8072 c 0,-2.18339 0.92976,-2.80721 4.1839,-2.80721 3.25414,0 4.1839,0.62382 4.1839,2.80721 0,2.18339 -0.92976,2.8072 -4.1839,2.8072 -3.25414,0 -4.1839,-0.62381 -4.1839,-2.8072 z m 16.38694,1.81664 c 1.72586,-0.33456 4.54999,-0.33456 6.27585,0 1.72586,0.33455 0.31379,0.60828 -3.13793,0.60828 -3.45171,0 -4.86378,-0.27373 -3.13792,-0.60828 z m -13.59767,27.80917 c 0,-0.68939 -1.03015,-1.65128 -2.28921,-2.13753 -1.91411,-0.73924 -2.00038,-0.53385 -0.52656,1.25343 2.00846,2.43559 2.81577,2.68908 2.81577,0.8841 z m 57.17995,-25.41501 c -1.15057,-0.74834 -3.34712,-1.32589 -4.88121,-1.28345 -2.78927,0.0772 -2.78927,0.0772 0,1.28345 1.53409,0.66347 3.73064,1.24103 4.88121,1.28346 1.85951,0.0686 1.85951,-0.074 0,-1.28346 z m 29.93179,-3.87659 c 0.44738,-1.17335 -0.19797,-3.68687 -1.43412,-5.58559 -1.86693,-2.86763 -2.9941,-3.30525 -6.65614,-2.58426 -8.08103,1.59103 -26.55101,3.62278 -42.06371,4.62716 -13.72193,0.88844 -14.60504,1.09717 -8.36779,1.9779 3.83524,0.54156 11.99384,1.08438 18.13023,1.20627 6.13638,0.12183 12.24546,0.65572 13.57572,1.18628 1.33025,0.53056 7.72499,1.04137 14.21053,1.13512 9.37307,0.13545 11.95872,-0.26713 12.60528,-1.96288 z"
       id="path4186"
       inkscape:connector-curvature="0" />
  </g>
</svg>
