<?xml version="1.0" encoding="UTF-8" standalone="no"?>
<!-- Created with Inkscape (http://www.inkscape.org/) -->

<svg
   xmlns:dc="http://purl.org/dc/elements/1.1/"
   xmlns:cc="http://creativecommons.org/ns#"
   xmlns:rdf="http://www.w3.org/1999/02/22-rdf-syntax-ns#"
   xmlns:svg="http://www.w3.org/2000/svg"
   xmlns="http://www.w3.org/2000/svg"
   xmlns:sodipodi="http://sodipodi.sourceforge.net/DTD/sodipodi-0.dtd"
   xmlns:inkscape="http://www.inkscape.org/namespaces/inkscape"
   width="500"
   height="500"
   viewBox="0 0 500.00001 500.00001"
   id="svg2"
   version="1.1"
   inkscape:version="0.91 r13725"
   sodipodi:docname="rock.svg">
  <defs
     id="defs4" />
  <sodipodi:namedview
     id="base"
     pagecolor="#ffffff"
     bordercolor="#666666"
     borderopacity="1.0"
     inkscape:pageopacity="0.0"
     inkscape:pageshadow="2"
     inkscape:zoom="0.7"
     inkscape:cx="212.38703"
     inkscape:cy="359.78551"
     inkscape:document-units="px"
     inkscape:current-layer="layer1"
     showgrid="false"
     units="px"
     inkscape:window-width="1368"
     inkscape:window-height="859"
     inkscape:window-x="-8"
     inkscape:window-y="-8"
     inkscape:window-maximized="1" />
  <metadata
     id="metadata7">
    <rdf:RDF>
      <cc:Work
         rdf:about="">
        <dc:format>image/svg+xml</dc:format>
        <dc:type
           rdf:resource="http://purl.org/dc/dcmitype/StillImage" />
        <dc:title></dc:title>
      </cc:Work>
    </rdf:RDF>
  </metadata>
  <g
     inkscape:label="Layer 1"
     inkscape:groupmode="layer"
     id="layer1"
     transform="translate(0,-552.36216)">
    <path
       style="fill:#000000"
       d="M 217.99353,1049.3119 C 117.90408,1036.8005 33.732146,963.38016 9.0805592,867.0841 1.4500463,837.27714 -0.99061288,801.59977 2.576589,772.00927 11.811704,695.40239 58.467023,625.74126 126.18639,587.44725 c 40.10418,-22.67815 82.37642,-33.16597 128.60141,-31.90628 26.89317,0.73288 40.64314,2.82161 65.74012,9.98645 75.49017,21.55146 138.89225,82.17002 163.6859,156.49968 9.88981,29.64896 12.10075,44.69666 12.07397,82.17515 -0.0206,28.72353 -0.43178,34.76304 -3.26002,47.87595 -4.8205,22.3498 -10.92148,40.16353 -20.3126,59.30902 -13.66752,27.8637 -26.19943,45.50815 -47.32972,66.63843 -36.52726,36.52725 -81.31718,60.03055 -132.01106,69.27215 -14.71532,2.6826 -60.29106,3.9002 -75.38086,2.0141 z m 41.15313,-4.2031 c 0.74672,-0.7324 7.14566,-1.6571 14.21987,-2.0548 16.9147,-0.9511 26.8384,-2.3078 28.5112,-3.898 0.74673,-0.7097 3.16712,-1.2905 5.37865,-1.2905 2.21152,0 5.13767,-0.5805 6.50255,-1.2899 1.36488,-0.7093 5.37559,-2.0688 8.91269,-3.0211 3.5371,-0.9522 7.8781,-2.3012 9.64665,-2.9976 1.76855,-0.6964 4.66254,-1.8198 6.4311,-2.4967 6.73237,-2.5761 28.40074,-13.3761 35.65764,-17.7725 14.51151,-8.7915 30.53404,-21.43631 44.49161,-35.11239 21.42676,-20.99458 35.10124,-40.06008 48.01545,-66.945 4.07433,-8.482 8.0145,-16.53853 8.7559,-17.9034 0.74141,-1.36488 1.34802,-3.66936 1.34802,-5.12106 0,-1.45171 0.44074,-3.08022 0.97944,-3.61891 1.56812,-1.56811 4.69207,-11.35675 4.71557,-14.77578 0.0114,-1.72216 0.5967,-3.48668 1.29969,-3.92117 0.70299,-0.43447 1.64895,-3.20563 2.10214,-6.15814 0.45318,-2.95252 1.57235,-9.54843 2.48704,-14.65758 1.76995,-9.88638 2.22067,-62.55211 0.64824,-75.74405 -0.51532,-4.32313 -1.50519,-9.14645 -2.19974,-10.7185 -0.69456,-1.57204 -1.65872,-5.10915 -2.14258,-7.86023 -0.48388,-2.75108 -1.24188,-7.09803 -1.68442,-9.6599 -0.44256,-2.56186 -1.37671,-5.01146 -2.07589,-5.44359 -0.69917,-0.43211 -1.27123,-2.22686 -1.27123,-3.98833 0,-1.76146 -0.51183,-3.81361 -1.13739,-4.56033 -0.62556,-0.74672 -2.00315,-3.93012 -3.06134,-7.07421 -2.69205,-7.99874 -11.91673,-27.2341 -17.52768,-36.54882 -24.38466,-40.48095 -61.32099,-74.68884 -101.17903,-93.70508 -18.1845,-8.6758 -23.22084,-10.78671 -32.15549,-13.47754 -3.14409,-0.94689 -7.00275,-2.22717 -8.5748,-2.84507 -1.57205,-0.6179 -4.78759,-1.52802 -7.14566,-2.02249 -2.35807,-0.49445 -7.1814,-1.56945 -10.7185,-2.38891 -3.53711,-0.81943 -10.61132,-1.77448 -15.72047,-2.12232 -5.10915,-0.34783 -10.60153,-1.28712 -12.20531,-2.08729 -7.2671,-3.62578 -61.25485,1.09545 -82.83203,7.24368 -3.1441,0.89586 -7.64586,2.16159 -10.00393,2.8127 -6.09856,1.68395 -9.28077,2.83888 -19.65058,7.13188 -58.486486,24.21277 -106.918061,71.13491 -130.279228,126.21891 -1.250076,2.94759 -3.151709,7.44936 -4.22586,10.00393 -1.074151,2.55458 -3.091344,8.18179 -4.482647,12.50492 -1.391319,4.32313 -3.036465,9.14645 -3.655894,10.7185 -2.749823,6.97877 -5.7763411,25.25111 -6.5096007,39.30115 -0.3486799,6.6812 -1.3194042,13.5066 -2.1571477,15.16757 -1.4946731,2.9634 -1.3837724,5.45831 1.5174678,34.13752 2.3252856,22.98578 3.2862196,29.33666 4.5577766,30.12253 0.687485,0.42488 1.249977,2.13591 1.249977,3.80226 0,2.80855 1.735081,9.24129 4.341191,16.09487 0.597792,1.57205 1.870292,5.10915 2.827797,7.86023 8.813964,25.32403 27.385905,56.57475 46.287776,77.88775 41.514652,46.81029 100.209362,76.52579 159.025282,80.51019 8.00091,0.5421 15.02153,1.46 15.60137,2.0398 1.52424,1.5244 15.47842,1.2978 17.08436,-0.2772 z m 31.36947,-131.57788 c -0.48579,-0.78602 -1.89246,-1.42913 -3.12593,-1.42913 -1.91876,0 -5.83678,-2.07694 -20.21982,-10.7185 -9.53586,-5.72929 -20.56965,-11.75449 -35.96328,-19.63837 -9.82529,-5.03205 -22.04437,-11.7371 -27.15352,-14.9001 -11.26627,-6.97478 -13.45549,-7.56763 -34.2992,-9.28826 -27.46121,-2.26691 -28.55995,-2.20177 -49.30508,2.92327 -5.63026,1.39095 -13.02074,3.41596 -21.437,5.8738 -2.35807,0.68864 -5.895174,1.67073 -7.860232,2.18241 -1.965058,0.51167 -4.859052,1.43065 -6.431099,2.04215 -1.572046,0.6115 -5.430705,1.88655 -8.574798,2.83345 -3.144093,0.94689 -7.002752,2.24564 -8.574798,2.88612 -1.572047,0.64047 -7.68159,2.64687 -13.576764,4.45867 -5.895174,1.8118 -11.361608,3.72482 -12.147631,4.25116 -2.602809,1.7429 -8.442475,2.70726 -11.597958,1.91529 -3.008496,-0.75509 -4.122548,-2.98128 -8.905885,-17.79655 -0.906242,-2.80689 -1.647719,-6.6977 -1.647719,-8.64625 0,-1.94856 -0.577241,-4.15378 -1.282747,-4.9005 -1.439995,-1.5241 -2.442146,-7.70128 -4.625475,-28.51121 -2.546672,-24.27311 -1.573575,-47.50271 2.117275,-50.54301 0.905984,-0.7463 5.827461,-1.70442 10.936612,-2.12914 12.975227,-1.07864 34.643557,-4.51923 50.734223,-8.05581 3.930116,-0.86381 10.03966,-2.1546 13.576764,-2.86846 3.537104,-0.71385 9.646652,-2.00007 13.576762,-2.85826 25.74966,-5.62284 35.04856,-6.58672 42.37318,-4.3922 3.39876,1.01829 6.35127,1.13492 7.95478,0.31424 1.40248,-0.71781 4.47929,-2.09827 6.83736,-3.06771 2.35807,-0.96943 5.40411,-2.33068 6.76899,-3.025 3.42898,-1.74433 12.85752,-1.57951 20.55754,0.35938 4.62287,1.16405 7.32243,1.18907 9.56493,0.0886 1.71834,-0.84325 5.37515,-1.85534 8.12623,-2.24913 4.62668,-0.66226 10.47346,-1.81835 27.15353,-5.36913 3.53711,-0.75297 9.32509,-1.95309 12.8622,-2.66694 3.5371,-0.71385 9.64665,-2.00007 13.57676,-2.85826 8.70589,-1.90107 19.82702,-4.12547 26.09493,-5.2194 2.56186,-0.44712 5.01147,-1.385 5.44359,-2.08417 0.43212,-0.69917 6.49774,-1.27122 13.47917,-1.27122 6.98143,0 13.09098,-0.64311 13.57677,-1.42913 1.08771,-1.75995 24.10576,-1.90584 27.5302,-0.17447 1.36488,0.69006 4.89765,2.28953 7.85061,3.55437 6.76145,2.89612 11.05368,9.7535 11.06067,17.67081 0.004,4.80636 1.14304,7.54801 5.55835,13.38162 4.33046,5.72153 5.76391,9.11025 6.51099,15.39218 3.23424,27.19576 5.03316,38.86294 6.53051,42.35457 0.67415,1.57205 1.63118,6.71693 2.12675,11.43306 0.49556,4.71614 1.24733,11.69427 1.67058,15.50694 1.03441,9.31815 -2.40754,15.67309 -10.56586,19.50795 -5.69946,2.67907 -6.10945,3.25621 -6.10945,8.60038 0,3.15074 -0.53879,6.84532 -1.19732,8.2102 -0.65854,1.36488 -2.12208,4.39644 -3.25231,6.73682 -2.58948,5.36206 -10.46003,10.75067 -15.70233,10.75067 -2.20485,0 -5.80762,0.72318 -8.00617,1.60707 -6.70012,2.69369 -9.50252,3.74842 -14.71586,5.53859 -2.75108,0.94467 -6.28818,2.20986 -7.86023,2.81151 -10.41707,3.98679 -28.27491,5.71536 -30.01179,2.90502 z m 37.87202,-12.34763 c 10.61131,-3.44726 21.86231,-7.06338 25.00221,-8.03583 5.77249,-1.78779 9.14827,-6.41691 11.49339,-15.7606 1.27006,-5.0603 -3.47905,-9.58819 -10.05664,-9.58819 -5.37822,0 -5.44065,-0.0522 -4.13449,-3.45595 0.68372,-1.78177 3.12525,-2.26059 11.52701,-2.26059 11.73566,0 14.64919,-1.01116 18.10339,-6.28295 2.10715,-3.21591 2.12995,-4.89292 0.24854,-18.27948 -1.13931,-8.1063 -3.35824,-21.81293 -4.93095,-30.45919 -1.57272,-8.64625 -2.87971,-18.47433 -2.90442,-21.84018 -0.0529,-7.20918 -3.16721,-15.32607 -7.79612,-20.31924 -2.06957,-2.23242 -3.64696,-6.17513 -4.20454,-10.5092 -1.20634,-9.37713 -3.5451,-13.76506 -9.45856,-17.74589 -4.68714,-3.15528 -5.90293,-3.30649 -20.72242,-2.57706 -8.65874,0.4262 -20.24493,0.97443 -25.74709,1.2183 -5.50217,0.24386 -12.25482,1.20707 -15.0059,2.14047 -2.75108,0.93339 -23.97371,5.59291 -47.16139,10.35448 -36.6658,7.5293 -44.02167,8.62775 -56.45076,8.4297 -11.75241,-0.18725 -15.51272,0.30805 -21.16641,2.78799 -5.70039,2.50043 -9.60738,3.00238 -22.86613,2.93773 -13.65827,-0.0666 -19.63948,0.74932 -41.00087,5.5931 -24.878335,5.64126 -52.949066,10.71617 -69.312953,12.53109 -13.935305,1.54557 -13.576764,1.00811 -13.576764,20.35147 0,25.82505 3.33351,46.62169 12.462054,77.74661 0.40343,1.37554 1.359291,2.50098 2.124149,2.50098 0.764858,0 14.034387,-4.14984 29.487831,-9.22188 33.36051,-10.94937 49.083863,-15.46516 67.398343,-19.35696 12.31473,-2.61686 15.37018,-2.74248 32.87006,-1.35133 26.55125,2.11068 35.46442,4.51995 50.01966,13.52045 6.68119,4.13146 19.3504,11.09492 28.15377,15.47437 8.80339,4.37946 20.28432,10.56172 25.51319,13.73837 5.22885,3.17664 9.87298,5.77571 10.32027,5.77571 0.44729,0 1.91792,0.99971 3.26807,2.22158 1.35016,1.22186 5.581,3.4504 9.40189,4.95227 8.95625,3.52044 14.41331,2.79053 39.10258,-5.23015 z m 5.30244,-39.10116 c 0.56167,-2.14778 1.94937,-2.85826 5.58274,-2.85826 3.88252,0 4.83529,0.56319 4.83529,2.85826 0,2.37048 -0.95277,2.85827 -5.58274,2.85827 -4.87913,0 -5.48853,-0.36023 -4.83529,-2.85827 z m 4.70149,0 c 0,-0.78602 -0.64311,-1.42913 -1.42913,-1.42913 -0.78602,0 -1.42913,0.64311 -1.42913,1.42913 0,0.78603 0.64311,1.42914 1.42913,1.42914 0.78602,0 1.42913,-0.64311 1.42913,-1.42914 z m -17.51362,-2.6668 c -2.15794,-8.25197 7.30738,-37.33374 12.15437,-37.34376 1.37554,-0.003 2.50099,0.9595 2.50099,2.13854 0,1.17903 0.84434,2.1437 1.87632,2.1437 2.63173,0 9.55674,7.52817 9.55674,10.38914 0,3.49944 -5.04094,5.79346 -8.5748,3.90219 -1.57204,-0.84133 -2.87245,-2.31095 -2.88979,-3.26583 -0.0173,-0.95487 -2.05291,1.73225 -4.52349,5.97142 -3.85034,6.60661 -4.27817,8.27395 -2.99519,11.67296 1.0568,2.79977 1.04218,4.42002 -0.0497,5.51194 -2.42609,2.42609 -6.28838,1.81282 -7.05541,-1.1203 z"
       id="path4173"
       inkscape:connector-curvature="0" />
  </g>
</svg>
