<?xml version="1.0" encoding="UTF-8" standalone="no"?>
<!-- Created with Inkscape (http://www.inkscape.org/) -->

<svg
   xmlns:dc="http://purl.org/dc/elements/1.1/"
   xmlns:cc="http://creativecommons.org/ns#"
   xmlns:rdf="http://www.w3.org/1999/02/22-rdf-syntax-ns#"
   xmlns:svg="http://www.w3.org/2000/svg"
   xmlns="http://www.w3.org/2000/svg"
   xmlns:sodipodi="http://sodipodi.sourceforge.net/DTD/sodipodi-0.dtd"
   xmlns:inkscape="http://www.inkscape.org/namespaces/inkscape"
   width="500"
   height="500"
   viewBox="0 0 500.00001 500.00001"
   id="svg2"
   version="1.1"
   inkscape:version="0.91 r13725"
   sodipodi:docname="scissors.svg">
  <defs
     id="defs4" />
  <sodipodi:namedview
     id="base"
     pagecolor="#ffffff"
     bordercolor="#666666"
     borderopacity="1.0"
     inkscape:pageopacity="0.0"
     inkscape:pageshadow="2"
     inkscape:zoom="0.7"
     inkscape:cx="212.38703"
     inkscape:cy="359.78551"
     inkscape:document-units="px"
     inkscape:current-layer="layer1"
     showgrid="false"
     units="px"
     inkscape:window-width="1368"
     inkscape:window-height="859"
     inkscape:window-x="-8"
     inkscape:window-y="-8"
     inkscape:window-maximized="1" />
  <metadata
     id="metadata7">
    <rdf:RDF>
      <cc:Work
         rdf:about="">
        <dc:format>image/svg+xml</dc:format>
        <dc:type
           rdf:resource="http://purl.org/dc/dcmitype/StillImage" />
        <dc:title></dc:title>
      </cc:Work>
    </rdf:RDF>
  </metadata>
  <g
     inkscape:label="Layer 1"
     inkscape:groupmode="layer"
     id="layer1"
     transform="translate(0,-552.36216)">
    <path
       style="fill:#000000"
       d="m 213.99789,1040.0476 c -13.12243,-1.528 -34.23962,-6.5044 -48.07982,-11.3303 C 62.409095,992.62544 -3.1830336,892.06911 5.371704,782.59089 7.880109,750.48988 15.417322,723.63801 30.360633,693.56603 44.724596,664.65994 64.036032,639.74698 87.281074,620.13515 137.75509,577.55024 200.06037,557.34091 264.11301,562.77797 c 51.09382,4.33706 93.32333,21.0903 132.83746,52.69911 58.4861,46.78522 91.16313,119.1315 88.07149,194.98858 -1.60531,39.38879 -9.094,68.15281 -26.65285,102.37363 -35.31085,68.8181 -103.13972,116.43571 -180.30545,126.57911 -16.55007,2.1754 -48.12464,2.4856 -64.06577,0.6292 z M 267.6,1034.6603 c 16.35659,-1.4545 26.9037,-3.4519 44.26967,-8.3842 3.04355,-0.8644 6.94364,-1.914 8.66687,-2.3323 1.72324,-0.4184 3.47196,-1.3089 3.88607,-1.9789 0.41411,-0.67 1.80563,-1.2211 3.09228,-1.2247 4.24215,-0.011 36.05005,-16.3172 48.60348,-24.91518 33.81007,-23.15697 62.71455,-56.1321 79.41101,-90.59458 6.15839,-12.71127 9.20904,-20.01178 9.20904,-22.03811 0,-1.10472 0.54822,-2.34739 1.21825,-2.7615 0.67002,-0.4141 1.56053,-2.16283 1.97889,-3.88606 0.41836,-1.72324 1.4679,-5.62334 2.33228,-8.66687 6.56401,-23.11134 7.33131,-29.98892 7.33131,-65.71281 0,-31.49127 -0.70214,-40.2081 -4.40173,-54.64538 -0.77992,-3.04354 -1.80405,-7.40135 -2.27586,-9.684 -0.47181,-2.28266 -1.37066,-5.39537 -1.99744,-6.91713 -0.62679,-1.52178 -1.89796,-4.94576 -2.82484,-7.60885 -3.2909,-9.45532 -10.78924,-25.60911 -17.65955,-38.04427 -17.44989,-31.58399 -50.03459,-64.90741 -81.92467,-83.78195 -28.77262,-17.02946 -59.13538,-27.65198 -91.30621,-31.94384 -15.7076,-2.09553 -47.18006,-2.92785 -50.43928,-1.33393 -1.55248,0.75924 -6.86921,1.69694 -11.81497,2.08376 -4.94575,0.38683 -11.79371,1.32388 -15.2177,2.08234 -3.42398,0.75846 -8.09305,1.77065 -10.37571,2.24928 -2.28265,0.47865 -5.39536,1.36423 -6.91714,1.96798 -1.52176,0.60373 -7.12464,2.4887 -12.45084,4.18881 -12.85952,4.10472 -39.68269,17.19208 -52.57024,25.64966 -19.66204,12.90341 -47.627226,40.10868 -61.872005,60.19074 -7.606746,10.72385 -22.393226,37.91121 -27.447109,50.46599 -1.641959,4.07892 -6.241096,18.54353 -7.917696,24.9017 -0.802558,3.04354 -2.131028,8.09611 -2.952155,11.22792 -0.821125,3.13182 -1.492955,7.83202 -1.492955,10.44488 0,2.61286 -0.656321,5.40698 -1.458492,6.20916 -0.973036,0.97303 -1.254299,11.77103 -0.845025,32.44137 0.6559,33.12599 1.625493,40.99617 7.651847,62.11 0.760108,2.6631 1.787275,6.39835 2.282595,8.30056 0.495319,1.90222 1.408334,4.70366 2.028922,6.22543 0.620586,1.52176 1.908176,4.94575 2.861307,7.60885 2.700856,7.54632 12.49723,27.76429 16.433987,33.9168 1.955469,3.05609 4.17795,6.55595 4.938828,7.77749 10.129069,16.26121 41.220504,50.1153 55.069311,59.96252 21.4186,15.22972 42.77229,26.67302 63.21374,33.87562 2.6631,0.9384 6.08708,2.1949 7.60886,2.7923 4.27326,1.6774 22.45085,6.3799 29.74368,7.6946 2.6631,0.48 11.17378,1.2838 18.91262,1.786 7.73884,0.5022 14.58369,1.4288 15.2108,2.0591 0.62711,0.6303 4.56727,0.7693 8.75593,0.309 4.18868,-0.4604 13.84118,-1.3906 21.45004,-2.0673 z M 233.70602,911.45587 c -1.14133,-0.7376 -3.41817,-1.35061 -5.05966,-1.36225 -2.81598,-0.02 -15.69176,-12.59296 -15.69176,-15.32272 0,-0.64239 -5.44724,-1.09421 -12.10498,-1.00402 -6.65775,0.0902 -13.50437,-0.29221 -15.21474,-0.84978 -1.71035,-0.55758 -5.00861,-3.77371 -7.32946,-7.14693 -2.32084,-3.37322 -5.23504,-6.13314 -6.47601,-6.13314 -2.54484,0 -10.90458,-2.48401 -14.53897,-4.32011 -1.32124,-0.66747 -3.66945,-1.2136 -5.21825,-1.2136 -3.75154,0 -19.08199,-7.02704 -26.56997,-12.17892 -4.24328,-2.91944 -8.22311,-4.33467 -13.57498,-4.82726 -8.26954,-0.76115 -14.34769,-1.96026 -18.63912,-3.67718 -1.52176,-0.60884 -4.508112,-1.80703 -6.636366,-2.66265 -2.128233,-0.85563 -5.583345,-1.55568 -7.678028,-1.55568 -2.094672,0 -4.477237,-0.66873 -5.294579,-1.4861 -0.971497,-0.9715 -5.977456,-1.19861 -14.456817,-0.65589 -7.133903,0.4566 -18.884885,0.96971 -26.113295,1.14023 l -13.142562,0.31004 -0.378746,-6.22542 c -0.20831,-3.42398 -1.010899,-7.4752 -1.783533,-9.0027 -0.879969,-1.7397 -1.177953,-13.88539 -0.797613,-32.51054 0.650423,-31.85121 1.601262,-41.99191 4.132185,-44.06982 0.877009,-0.72002 5.329817,-1.63886 9.895127,-2.04185 4.565312,-0.40299 12.035816,-1.42978 16.601126,-2.28175 14.165729,-2.64357 21.659371,-3.13043 24.722212,-1.60616 1.620484,0.80645 6.681591,1.81579 11.246901,2.24296 4.565309,0.42717 13.903448,1.44865 20.751408,2.26997 21.76326,2.61018 106.90556,1.47419 113.44106,-1.51356 3.10202,-1.4181 11.61154,-2.57946 26.9382,-3.67642 9.6982,-0.69414 17.70815,0.57535 23.884,3.78534 3.09564,1.60901 61.52178,1.64029 62.51485,0.0335 0.41304,-0.6683 10.25483,-1.31146 21.87062,-1.42919 11.6158,-0.11773 22.98728,-0.76826 25.26993,-1.44562 2.28265,-0.67735 7.57427,-1.92788 11.75913,-2.77891 10.38361,-2.11164 18.4123,-4.45013 19.99053,-5.82256 2.16471,-1.88244 8.92612,-1.29534 12.56868,1.09137 2.97196,1.9473 3.4099,3.25919 3.4099,10.21474 0,7.53273 -0.30535,8.25632 -5.44242,12.89739 -9.72784,8.78849 -28.18421,15.92284 -47.81954,18.4847 -3.04354,0.3971 -6.12512,1.28078 -6.84796,1.96374 -0.72284,0.68294 -3.95445,1.24171 -7.18135,1.24171 -3.2269,0 -6.20749,0.55078 -6.62352,1.22392 -0.41603,0.67317 -2.78731,1.63055 -5.2695,2.12752 -2.48218,0.49698 -7.62578,1.55076 -11.43021,2.34173 -3.80443,0.79098 -10.5038,1.75686 -14.88747,2.14643 l -7.97035,0.7083 25.26319,12.51349 c 13.89474,6.88241 26.34418,13.05219 27.6654,13.71061 1.32123,0.65842 3.35295,1.19713 4.51492,1.19713 1.16198,0 3.19369,0.54611 4.51493,1.21359 3.8992,1.96987 12.07065,4.32011 15.02046,4.32011 1.50579,0 3.32922,0.56983 4.05205,1.26628 0.72283,0.69646 2.87061,1.47464 4.77282,1.72929 2.31921,0.31047 4.35486,2.13691 6.17923,5.54418 2.7073,5.05622 2.70716,5.10715 -0.0265,10.3757 -3.39761,6.5479 -13.0333,11.91419 -19.29518,10.74585 -2.28267,-0.42591 -8.81936,-1.32505 -14.52599,-1.99811 -11.91826,-1.40567 -15.25479,-2.15923 -36.31497,-8.2018 -6.30523,-1.80911 -8.87845,-2.40281 -18.33043,-4.22941 -9.77016,-1.88808 -18.80718,-4.30418 -20.7514,-5.54799 -0.76089,-0.48677 -4.18487,-1.72797 -7.60886,-2.75821 -3.42398,-1.03024 -6.81684,-2.38745 -7.53967,-3.01604 -0.72287,-0.62859 -3.80448,-1.14288 -6.848,-1.14288 -4.304,0 -5.16481,0.36892 -3.87362,1.66011 0.91308,0.91306 1.66012,3.36648 1.66012,5.45206 0,2.08557 0.62255,4.17671 1.38343,4.64696 0.76089,0.47025 1.38342,2.25011 1.38342,3.95525 0,1.70513 0.5143,3.69164 1.14289,4.41449 0.62859,0.72284 1.96261,3.92766 2.96451,7.12181 1.48265,4.72679 1.49402,6.59852 0.0611,10.05787 -2.21359,5.34408 -8.36988,10.59894 -13.81936,11.79585 -4.01208,0.8812 -4.18341,1.21832 -4.18341,8.2312 0,8.62816 -2.78057,12.91757 -12.27818,18.94076 -6.50357,4.12443 -10.48208,4.85697 -14.00699,2.57901 z m 13.80287,-10.51192 c 5.82377,-5.26141 8.47062,-11.65732 7.31848,-17.68439 -0.38254,-2.00114 0.0766,-4.56867 1.02008,-5.70562 1.38901,-1.67365 1.3306,-2.06719 -0.30685,-2.06719 -1.11236,0 -2.74494,-1.58565 -3.62796,-3.52366 -2.0574,-4.51551 -2.03884,-5.76362 0.0547,-3.67017 0.91306,0.91307 2.28266,1.66012 3.04354,1.66012 0.76858,0 0.6456,-0.73782 -0.27669,-1.66012 -2.82557,-2.82557 -1.82495,-4.45159 1.10675,-1.79844 1.52176,1.37718 2.76685,3.96383 2.76685,5.74812 0,4.58198 5.47791,4.30611 10.30288,-0.51889 4.43326,-4.43322 4.33321,-5.92553 -1.68839,-25.18827 -2.2423,-7.17304 -3.78143,-14.17187 -3.42028,-15.55293 0.39073,-1.49413 2.79713,-3.08741 5.94205,-3.93426 5.4677,-1.47229 12.8334,0.36521 28.88718,7.20641 3.3712,1.43661 12.08679,3.81691 19.36798,5.28957 7.28118,1.47266 21.33159,4.81792 31.22308,7.43389 23.70336,6.26876 38.88652,7.6671 44.87023,4.13244 8.50011,-5.02113 6.41717,-13.21126 -3.77685,-14.85049 -12.31488,-1.98029 -36.15456,-11.22412 -59.04498,-22.89471 -13.57478,-6.92103 -25.51653,-12.58369 -26.5373,-12.58369 -2.80543,0 -2.30194,-6.60503 0.56505,-7.41287 1.33156,-0.37518 7.09007,-1.3979 12.79671,-2.27272 5.70663,-0.87479 18.15749,-3.41334 27.66855,-5.64121 9.51106,-2.22785 24.45208,-5.59325 33.20226,-7.47862 16.71927,-3.60249 33.13583,-10.66118 38.78833,-16.67801 3.52172,-3.7487 3.99207,-9.63529 1.00827,-12.61908 -1.81381,-1.81381 -2.67716,-1.78702 -7.43592,0.23088 -9.39254,3.98279 -36.49547,8.96157 -48.96181,8.99424 -6.46753,0.0171 -22.34234,0.8947 -35.2774,1.95058 -27.25328,2.22465 -56.1864,1.11298 -69.03658,-2.65252 -7.63324,-2.23678 -9.12186,-2.24796 -22.82656,-0.17144 -8.06342,1.22175 -18.7073,2.52843 -23.65306,2.90373 -4.94576,0.37529 -17.70788,1.34236 -28.36026,2.14903 -23.49376,1.77911 -62.30455,0.68121 -88.53937,-2.50465 -23.000329,-2.79306 -39.780111,-2.82198 -56.637874,-0.0975 -11.871121,1.9185 -12.413038,2.1631 -13.483785,6.08598 -4.600646,16.85528 -2.907942,76.58937 2.226164,78.55951 0.92474,0.35486 9.637556,-0.65909 19.361808,-2.25319 19.601547,-3.2133 20.887026,-3.07005 48.250137,5.37669 5.93112,1.83087 15.26925,4.01408 20.7514,4.85157 6.33627,0.96796 11.47956,2.66029 14.11784,4.64526 7.31152,5.50101 15.54193,9.01341 32.67814,13.94574 9.20434,2.64929 17.44549,5.27859 18.31364,5.84288 0.86816,0.56431 5.625,1.33728 10.57075,1.71773 6.61053,0.50851 8.88694,1.19092 8.59459,2.57645 -0.21871,1.0366 0.7151,2.72879 2.07515,3.76043 2.25577,1.71106 2.26749,1.87955 0.1335,1.91969 -1.28665,0.0243 -2.72411,-0.57856 -3.19437,-1.33943 -0.47025,-0.76089 -4.08662,-1.3585 -8.03636,-1.32804 l -7.18134,0.0554 4.03548,2.18499 c 3.81464,2.06542 14.14959,2.79186 23.52568,1.6536 3.49383,-0.42416 4.81413,0.51353 9.72184,6.90452 9.85968,12.83964 17.74349,14.67898 27.01498,6.30273 z m -8.6801,-41.7708 c -4.73689,-4.85102 -6.82859,-8.42222 -3.8575,-6.58598 0.69589,0.43008 1.47407,0.19595 1.72928,-0.52029 0.25522,-0.71624 2.78171,0.82919 5.61446,3.4343 3.22347,2.96442 4.85027,5.51879 4.34812,6.82735 -1.17223,3.0548 -2.15796,2.65779 -7.83436,-3.15538 z m 3.0731,-1.3251 c -1.84463,-2.09244 -3.5095,-4.06382 -3.69971,-4.38086 -0.19023,-0.31702 -0.78844,-0.13378 -1.32937,0.40709 -0.54094,0.54092 0.85978,2.48991 3.11271,4.3311 5.4045,4.41676 6.02335,4.30139 1.91637,-0.35733 z m 0.10472,-9.25649 c 0,-2.41102 2.26837,-4.01159 4.08986,-2.88584 1.84127,1.13797 0.18293,4.87934 -2.16273,4.87934 -1.05991,0 -1.92713,-0.89707 -1.92713,-1.9935 z m -12.99235,-4.95164 c -2.77915,-6.94579 -2.83116,-10.89379 -0.157,-11.91996 1.13757,-0.43652 3.43112,-3.21843 5.09673,-6.182 1.7828,-3.17206 4.06165,-5.38831 5.54051,-5.38831 3.08605,0 3.0972,0.70415 0.17751,11.20572 -1.82499,6.56412 -1.98269,8.96056 -0.72248,10.97848 1.28002,2.04964 1.17063,3.0229 -0.53107,4.72459 -3.75804,3.75803 -7.00496,2.57775 -9.4042,-3.41852 z m 66.46276,-44.88908 c -0.42863,-1.11697 -0.25476,-2.35506 0.3864,-2.75131 0.64116,-0.39626 1.4895,0.51762 1.8852,2.03084 0.82705,3.1626 -1.09996,3.77376 -2.2716,0.72047 z M 192.5681,880.04663 c -1.70154,-0.32838 -4.81424,-0.33689 -6.91714,-0.0188 -2.10289,0.31798 -0.71073,0.58666 3.09369,0.59705 3.80443,0.009 5.52498,-0.24979 3.82345,-0.57817 z"
       id="path4199"
       inkscape:connector-curvature="0" />
  </g>
</svg>
